HIERARCHY
ROOT Hips
{
    OFFSET 0.000000 0.000000 0.000000
    CHANNELS 6 Xposition Yposition Zposition Zrotation Xrotation Yrotation
    JOINT Chest
    {
        OFFSET -0.000000 0.071105 0.000000
        CHANNELS 3 Zrotation Xrotation Yrotation
        JOINT Chest2
        {
            OFFSET -0.000000 0.200212 0.000000
            CHANNELS 3 Zrotation Xrotation Yrotation
            JOINT Neck
            {
                OFFSET -0.000000 0.217555 0.000000
                CHANNELS 3 Zrotation Xrotation Yrotation
                JOINT Head
                {
                    OFFSET -0.000000 0.094084 0.017343
                    CHANNELS 3 Zrotation Xrotation Yrotation
                    End Site
                    {
                        OFFSET -0.000000 0.173426 0.000000
                    }
                }
            }
            JOINT LeftCollar
            {
                OFFSET 0.034271 0.185201 -0.001051
                CHANNELS 3 Zrotation Xrotation Yrotation
                JOINT LeftShoulder
                {
                    OFFSET 0.097644 0.000000 0.000000
                    CHANNELS 3 Zrotation Xrotation Yrotation
                    JOINT LeftElbow
                    {
                        OFFSET 0.258441 0.000000 0.000000
                        CHANNELS 3 Zrotation Xrotation Yrotation
                        JOINT LeftWrist
                        {
                            OFFSET 0.227663 0.000000 0.000000
                            CHANNELS 3 Zrotation Xrotation Yrotation
                            End Site
                            {
                                OFFSET 0.000000 -0.130070 0.000000
                            }
                        }
                    }
                }
            }
            JOINT RightCollar
            {
                OFFSET -0.035061 0.185201 -0.001051
                CHANNELS 3 Zrotation Xrotation Yrotation
                JOINT RightShoulder
                {
                    OFFSET -0.097644 0.000000 0.000000
                    CHANNELS 3 Zrotation Xrotation Yrotation
                    JOINT RightElbow
                    {
                        OFFSET -0.258441 0.000000 0.000000
                        CHANNELS 3 Zrotation Xrotation Yrotation
                        JOINT RightWrist
                        {
                            OFFSET -0.227663 0.000000 0.000000
                            CHANNELS 3 Zrotation Xrotation Yrotation
                            End Site
                            {
                                OFFSET -0.000000 -0.130070 0.000000
                            }
                        }
                    }
                }
            }
        }
    }
    JOINT LeftHip
    {
        OFFSET 0.086713 0.000000 0.000000
        CHANNELS 3 Zrotation Xrotation Yrotation
        JOINT LeftKnee
        {
            OFFSET -0.000000 -0.399834 0.000000
            CHANNELS 3 Zrotation Xrotation Yrotation
            JOINT LeftAnkle
            {
                OFFSET -0.000000 -0.330972 0.000000
                CHANNELS 3 Zrotation Xrotation Yrotation
                JOINT LeftToe
                {
                    OFFSET -0.000000 -0.056364 0.130070
                    CHANNELS 3 Zrotation Xrotation Yrotation
                    End Site
                    {
                        OFFSET -0.000000 0.000000 0.034685
                    }
                }
            }
        }
    }
    JOINT RightHip
    {
        OFFSET -0.086713 0.000000 0.000000
        CHANNELS 3 Zrotation Xrotation Yrotation
        JOINT RightKnee
        {
            OFFSET -0.000000 -0.399834 0.000000
            CHANNELS 3 Zrotation Xrotation Yrotation
            JOINT RightAnkle
            {
                OFFSET -0.000000 -0.330972 0.000000
                CHANNELS 3 Zrotation Xrotation Yrotation
                JOINT RightToe
                {
                    OFFSET -0.000000 -0.056364 0.130070
                    CHANNELS 3 Zrotation Xrotation Yrotation
                    End Site
                    {
                        OFFSET -0.000000 0.000000 0.034685
                    }
                }
            }
        }
    }
}
MOTION
Frames:    10
Frame Time:    0.016667
0.011979    0.812729    0.192542    -0.015115    0.016384    173.597626    2.137638    -1.907476    0.371787    -1.787046    -0.936992    0.097181    -3.526218    13.227142    0.934704    -0.006332    2.555850    0.087661    11.598668    -0.447682    0.081994    -13.321001    -2.062519    6.495912    -0.158476    -4.631919    -0.288743    94.049469    -0.688497    4.656657    -13.778750    -0.436955    3.961492    15.624219    -0.717704    6.646669    -0.141228    0.819291    0.608612    -99.798004    -1.330225    0.705999    6.898489    0.185602    0.122724    -4.846534    11.585727    1.284806    -2.302915    -11.169419    9.759567    0.000000    0.000000    0.000000    0.052981    -1.972718    -0.002973    -0.287905    11.230478    2.058656    -0.129889    -9.175220    -4.636352    0.000000    0.000000    0.000000    
0.012039    0.812697    0.192547    -0.011503    0.016490    173.605591    2.146040    -1.924033    0.363774    -1.791937    -0.902488    0.094585    -3.528846    13.209072    0.940476    0.007710    2.544902    0.091218    11.676238    -0.468928    -0.028160    -13.531839    -1.674588    6.693196    -0.020979    -4.912127    -0.433416    94.202103    -0.591745    4.933929    -13.731887    -0.455064    3.934073    15.586641    -0.691555    6.667892    -0.153794    0.837332    0.615784    -99.727264    -1.372509    0.721429    6.898835    0.172712    0.138971    -4.828072    11.619491    1.324637    -2.349876    -11.184952    9.706514    0.000000    0.000000    0.000000    0.070728    -1.976376    -0.057758    -0.317154    11.245219    2.057634    -0.181313    -9.187298    -4.577182    0.000000    0.000000    0.000000    
0.012083    0.812732    0.192498    -0.016176    0.024740    173.603745    2.134137    -1.925041    0.362052    -1.766277    -0.890214    0.094585    -3.551764    13.179394    0.948357    0.006131    2.560404    0.094678    11.572348    -0.452039    0.117117    -13.294322    -2.059672    6.502719    -0.171444    -4.664398    -0.345490    94.164719    -0.784259    4.693422    -13.754793    -0.452559    3.953749    15.618096    -0.741606    6.641990    -0.135293    0.891591    0.577205    -99.794662    -1.496815    0.764079    6.901008    0.161686    0.123168    -4.839736    11.612656    1.780295    -2.422403    -11.096589    9.236334    0.000000    0.000000    0.000000    0.063860    -1.969779    -0.016164    -0.301505    11.253972    2.088450    -0.176635    -9.203285    -4.652131    0.000000    0.000000    0.000000    
0.012146    0.812761    0.192422    -0.024831    0.032056    173.607407    2.102355    -1.915951    0.375033    -1.709601    -0.902790    0.099545    -3.586440    13.158650    0.944191    0.016835    2.573391    0.081169    11.546246    -0.421921    0.104733    -13.303196    -2.021783    6.483489    -0.172675    -4.645226    -0.318689    94.177582    -0.831506    4.676039    -13.792986    -0.401345    3.907989    15.646082    -0.861661    6.673985    -0.093407    0.846229    0.570639    -99.854507    -1.415385    0.724652    6.906221    0.141161    0.082426    -4.865320    11.660866    1.687949    -2.355644    -11.085334    9.339533    0.000000    0.000000    0.000000    0.071743    -1.973545    -0.032201    -0.402740    11.281041    2.319795    -0.015989    -9.224086    -4.745884    0.000000    0.000000    0.000000    
0.012203    0.812701    0.192381    -0.022661    0.051305    173.621185    2.132477    -1.898828    0.349416    -1.748170    -0.903624    0.090446    -3.585952    13.147117    0.967106    0.006081    2.560107    0.106362    11.569954    -0.432590    0.141067    -13.321685    -1.988345    6.485278    -0.167807    -4.634567    -0.303687    94.191574    -0.833175    4.665492    -13.796369    -0.425357    3.909858    15.693927    -0.890659    6.665977    -0.100358    0.825525    0.593199    -99.979362    -1.422789    0.701889    6.906011    0.156363    0.068475    -4.863359    11.674043    1.760020    -2.400190    -11.108846    9.287891    0.000000    0.000000    0.000000    0.074143    -1.952596    -0.055440    -0.402952    11.287947    2.314009    -0.013886    -9.215223    -4.724530    0.000000    0.000000    0.000000    
0.012231    0.812662    0.192437    -0.025779    0.052493    173.647003    2.144978    -1.885675    0.328930    -1.771944    -0.935692    0.083010    -3.457574    13.187922    0.955578    -0.187432    2.499253    0.154444    11.583479    -0.441426    0.159322    -13.307312    -2.065023    6.476217    -0.193677    -4.602693    -0.293091    94.175392    -0.857772    4.634461    -13.849307    -0.865991    4.380013    15.834890    -0.347168    5.839446    -0.197006    0.714667    0.905862    -99.861206    -1.411191    0.594467    6.897541    0.142407    0.054151    -4.850873    11.688535    1.843386    -2.443129    -11.079356    9.173544    0.000000    0.000000    0.000000    0.073614    -1.962563    -0.079059    -0.339989    11.323696    2.061763    -0.143687    -9.230043    -4.597849    0.000000    0.000000    0.000000    
0.012293    0.812682    0.192358    -0.028056    0.063222    173.647934    2.152546    -1.897947    0.323751    -1.781534    -0.924465    0.081534    -3.453629    13.194194    0.961448    -0.198521    2.479926    0.162910    11.590021    -0.444109    0.171386    -13.339283    -2.024248    6.487917    -0.139190    -4.668578    -0.277845    94.130592    -0.801150    4.697819    -13.838347    -0.855601    4.392594    15.840436    -0.329781    5.824512    -0.205223    0.666517    0.919249    -100.004364    -1.372633    0.548098    6.899400    0.146312    0.095935    -4.844201    11.714664    1.774824    -2.455320    -11.109967    9.234328    0.000000    0.000000    0.000000    0.068929    -1.946205    -0.095912    -0.330617    11.323223    2.109860    -0.122143    -9.233179    -4.635709    0.000000    0.000000    0.000000    
0.012356    0.812731    0.192273    -0.037652    0.057257    173.642792    2.145151    -1.928125    0.327756    -1.765553    -0.916538    0.082553    -3.486034    13.188553    0.970990    -0.173495    2.498184    0.161087    11.576085    -0.432265    0.175457    -13.345255    -2.110734    6.497452    -0.132343    -4.667348    -0.264178    94.234917    -0.811148    4.697638    -13.818830    -0.791474    4.365886    15.802939    -0.359142    5.844158    -0.188864    0.680863    0.953750    -99.985069    -1.337552    0.565668    6.902798    0.123173    0.123664    -4.850635    11.764575    1.621538    -2.380234    -11.107741    9.346844    0.000000    0.000000    0.000000    0.064067    -1.837321    0.819169    -0.221425    11.057392    1.094828    0.082033    -9.150114    -4.370773    0.000000    0.000000    0.000000    
0.012414    0.812748    0.192218    -0.044853    0.056662    173.652267    2.146366    -1.946963    0.322292    -1.761402    -0.913877    0.080828    -3.509225    13.175421    0.976196    -0.159559    2.523386    0.159224    11.558215    -0.445748    0.194033    -13.411764    -1.918779    6.541653    -0.062952    -4.782593    -0.352673    94.265472    -0.776626    4.811711    -13.816043    -0.794117    4.360376    15.832125    -0.177175    5.845970    -0.290012    0.593443    0.957499    -99.910110    -1.206890    0.491226    6.893215    0.113907    0.147855    -4.835356    11.784389    1.620990    -2.387774    -11.099811    9.314635    0.000000    0.000000    0.000000    0.060924    -1.845955    0.819528    -0.217108    11.082913    1.096198    0.081491    -9.163270    -4.386824    0.000000    0.000000    0.000000    
0.012515    0.812689    0.192177    -0.036581    0.062659    173.665039    2.164654    -1.946403    0.329970    -1.785564    -0.930592    0.082686    -3.414954    13.181047    0.937651    -0.283511    2.538842    0.161086    11.527119    -0.443756    0.246076    -13.357940    -1.998837    6.473483    -0.081139    -4.728987    -0.328577    94.209587    -0.846242    4.760320    -13.782784    -0.814447    4.338672    15.853269    -0.143198    5.804467    -0.341347    0.546693    1.025403    -99.625504    -1.090063    0.458059    6.904872    0.136350    0.139957    -4.834102    11.769368    1.732605    -2.430795    -11.103129    9.185822    0.000000    0.000000    0.000000    0.079277    -1.842543    0.816159    -0.158103    11.108012    0.870241    -0.083257    -9.163624    -4.322554    0.000000    0.000000    0.000000    
